<?xml version="1.0" standalone="no"?>
<!DOCTYPE svg PUBLIC "-//W3C//DTD SVG 20010904//EN"
 "http://www.w3.org/TR/2001/REC-SVG-20010904/DTD/svg10.dtd">
<svg version="1.0" xmlns="http://www.w3.org/2000/svg"
 width="700.000000pt" height="700.000000pt" viewBox="0 0 700.000000 700.000000"
 preserveAspectRatio="xMidYMid meet">
<metadata>
Created by potrace 1.14, written by Peter Selinger 2001-2017
</metadata>
<g transform="translate(0.000000,700.000000) scale(0.100000,-0.100000)"
fill="#000000" stroke="none">
<path d="M1112 5888 c-17 -17 -17 -4759 0 -4776 9 -9 283 -12 1170 -12 l1158
0 0 -42 0 -42 30 29 30 29 30 -29 30 -29 0 42 0 42 1158 0 c887 0 1161 3 1170
12 17 17 17 4759 0 4776 -9 9 -227 12 -917 12 l-906 0 -282 -282 -283 -283
-283 283 -282 282 -906 0 c-690 0 -908 -3 -917 -12z m2055 -390 l273 -273 0
-1960 0 -1960 -253 253 -252 252 -853 0 -852 0 0 1980 0 1980 832 0 833 0 272
-272z m2603 -1708 l0 -1980 -852 0 -853 0 -252 -252 -253 -253 0 1960 0 1960
272 272 273 273 832 0 833 0 0 -1980z m-2645 -2330 l230 -230 -1063 0 -1062 0
0 230 0 230 833 0 832 0 230 -230z m2645 0 l0 -230 -1062 0 -1063 0 230 230
230 230 832 0 833 0 0 -230z"/>
<path d="M1540 4590 l0 -513 213 6 c298 8 403 35 505 131 95 89 132 194 133
378 0 175 -31 275 -113 364 -49 53 -102 85 -193 115 -63 20 -94 23 -307 27
l-238 4 0 -512z m449 384 c121 -27 199 -95 238 -207 14 -40 18 -81 17 -177 0
-145 -21 -214 -82 -282 -72 -80 -166 -108 -357 -108 l-125 0 0 395 0 395 121
0 c73 0 147 -6 188 -16z"/>
<path d="M2612 4593 l3 -508 328 -3 327 -2 0 60 0 60 -260 0 -260 0 0 185 0
185 245 0 246 0 -3 58 -3 57 -242 3 -243 2 0 150 0 150 255 0 255 0 0 55 0 55
-325 0 -325 0 2 -507z"/>
<path d="M3870 2840 l0 -510 330 0 330 0 0 60 0 60 -260 0 -260 0 0 185 0 185
240 0 240 0 0 60 0 60 -240 0 -240 0 0 150 0 150 255 0 255 0 0 55 0 55 -325
0 -325 0 0 -510z"/>
<path d="M4760 2840 l0 -510 65 0 65 0 2 424 3 424 225 -424 225 -424 93 0 92
0 0 510 0 510 -65 0 -65 0 0 -422 c-1 -335 -3 -420 -13 -407 -7 9 -109 199
-227 423 l-215 406 -92 0 -93 0 0 -510z"/>
</g>
</svg>
